<svg width="50" height="40" viewBox="0 0 50 40" fill="none" xmlns="http://www.w3.org/2000/svg">
<path d="M7.5 5C7.5 2.24219 9.74219 0 12.5 0H20.8047C22.8516 0 24.6875 1.24219 25.4453 3.14062L29.1953 12.5H37.5V9.85938C37.5 7.92188 37.9531 6.00781 38.8203 4.26562L39.0156 3.875C39.6328 2.64062 41.1328 2.14062 42.3672 2.75781C43.6016 3.375 44.1016 4.875 43.4844 6.10938L43.2891 6.5C42.7656 7.53906 42.5 8.6875 42.5 9.85156V12.5H46.875C48.6016 12.5 50 13.8984 50 15.625V19.1719C50 20.4609 49.3359 21.6641 48.2344 22.3516L44.8516 24.4688C43.7422 24.0078 42.5234 23.75 41.25 23.75C38.1797 23.75 35.4609 25.2266 33.75 27.5H27.5C27.5 28.8828 26.3828 30 25 30H24.3594C24.2266 30.375 24.0703 30.7422 23.9062 31.1016L24.3594 31.5547C25.3359 32.5312 25.3359 34.1172 24.3594 35.0938L22.5938 36.8594C21.6172 37.8359 20.0312 37.8359 19.0547 36.8594L18.6016 36.4062C18.2422 36.5781 17.875 36.7266 17.5 36.8594V37.5C17.5 38.8828 16.3828 40 15 40H12.5C11.1172 40 10 38.8828 10 37.5V36.8594C9.625 36.7266 9.25781 36.5703 8.89844 36.4062L8.44531 36.8594C7.46875 37.8359 5.88281 37.8359 4.90625 36.8594L3.14062 35.0859C2.16406 34.1094 2.16406 32.5234 3.14062 31.5469L3.59375 31.0938C3.42188 30.7344 3.27344 30.3672 3.14062 29.9922H2.5C1.11719 29.9922 0 28.875 0 27.4922V25C0 23.6172 1.11719 22.5 2.5 22.5H3.14062C3.27344 22.125 3.42969 21.7578 3.59375 21.3984L3.14062 20.9453C2.16406 19.9688 2.16406 18.3828 3.14062 17.4062L4.90625 15.6406C5.60938 14.9375 6.61719 14.7422 7.49219 15.0469V5H7.5ZM20.8047 5H12.5V12.5H23.8047L20.8047 5ZM13.75 20C10.2969 20 7.5 22.7969 7.5 26.25C7.5 29.7031 10.2969 32.5 13.75 32.5C17.2031 32.5 20 29.7031 20 26.25C20 22.7969 17.2031 20 13.75 20ZM41.25 35C42.2891 35 43.125 34.1641 43.125 33.125C43.125 32.0859 42.2891 31.25 41.25 31.25C40.2109 31.25 39.375 32.0859 39.375 33.125C39.375 34.1641 40.2109 35 41.25 35ZM41.25 40C37.4531 40 34.375 36.9219 34.375 33.125C34.375 30.7969 35.5312 28.7422 37.2969 27.5C38.4141 26.7109 39.7812 26.25 41.25 26.25C41.4609 26.25 41.6641 26.2578 41.8672 26.2734C45.375 26.5859 48.125 29.5312 48.125 33.125C48.125 36.9219 45.0469 40 41.25 40Z" fill="white"/>
</svg>
