<svg width="75" height="40" viewBox="0 0 75 40" fill="none" xmlns="http://www.w3.org/2000/svg">
<g clip-path="url(#clip0_1918_43471)">
<path d="M5.38461 12.6451C5.38461 10.6524 6.99438 9.03223 8.97435 9.03223H14.9367C16.4062 9.03223 17.7243 9.92981 18.2684 11.3016L20.9607 18.0645H26.9231V16.1564C26.9231 14.7564 27.2484 13.3734 27.871 12.1145L28.0112 11.8322C28.4543 10.9403 29.5312 10.579 30.4174 11.025C31.3037 11.4709 31.6626 12.5548 31.2195 13.4467L31.0793 13.729C30.7035 14.4798 30.5128 15.3096 30.5128 16.1508V18.0645H33.6538C34.8934 18.0645 35.8974 19.075 35.8974 20.3225V22.8855C35.8974 23.8169 35.4206 24.6863 34.6298 25.183L32.2011 26.7129C31.4046 26.3798 30.5296 26.1935 29.6154 26.1935C27.411 26.1935 25.4591 27.2605 24.2307 28.9032H19.7436C19.7436 29.9024 18.9415 30.7096 17.9487 30.7096H17.4888C17.3934 30.9806 17.2812 31.2459 17.1634 31.5056L17.4888 31.833C18.1899 32.5387 18.1899 33.6846 17.4888 34.3903L16.2211 35.6661C15.52 36.3717 14.3814 36.3717 13.6803 35.6661L13.355 35.3387C13.0969 35.4629 12.8333 35.5701 12.5641 35.6661V36.129C12.5641 37.1282 11.762 37.9355 10.7692 37.9355H8.97435C7.98156 37.9355 7.17948 37.1282 7.17948 36.129V35.6661C6.91025 35.5701 6.64663 35.4572 6.38862 35.3387L6.0633 35.6661C5.36217 36.3717 4.22355 36.3717 3.52243 35.6661L2.25481 34.3846C1.55368 33.679 1.55368 32.533 2.25481 31.8274L2.58013 31.5C2.45673 31.2403 2.35016 30.975 2.25481 30.704H1.79487C0.802083 30.704 0 29.8967 0 28.8975V27.0967C0 26.0975 0.802083 25.2903 1.79487 25.2903H2.25481C2.35016 25.0193 2.46234 24.754 2.58013 24.4943L2.25481 24.1669C1.55368 23.4613 1.55368 22.3153 2.25481 21.6096L3.52243 20.3338C4.02724 19.8258 4.7508 19.6846 5.379 19.9048V12.6451H5.38461ZM14.9367 12.6451H8.97435V18.0645H17.0905L14.9367 12.6451ZM9.87179 23.4838C7.39262 23.4838 5.38461 25.5048 5.38461 28C5.38461 30.4951 7.39262 32.5161 9.87179 32.5161C12.351 32.5161 14.359 30.4951 14.359 28C14.359 25.5048 12.351 23.4838 9.87179 23.4838ZM29.6154 34.3225C30.3614 34.3225 30.9615 33.7185 30.9615 32.9677C30.9615 32.2169 30.3614 31.6129 29.6154 31.6129C28.8694 31.6129 28.2692 32.2169 28.2692 32.9677C28.2692 33.7185 28.8694 34.3225 29.6154 34.3225ZM29.6154 37.9355C26.8894 37.9355 24.6795 35.7113 24.6795 32.9677C24.6795 31.2855 25.5096 29.8008 26.7772 28.9032C27.5793 28.333 28.5609 28 29.6154 28C29.7668 28 29.9126 28.0056 30.0585 28.0169C32.5769 28.2427 34.5513 30.3709 34.5513 32.9677C34.5513 35.7113 32.3413 37.9355 29.6154 37.9355Z" fill="white"/>
</g>
<g clip-path="url(#clip1_1918_43471)">
<path d="M68.7381 19.5757C71.8694 19.5757 74.3986 17.0303 74.3986 13.8788V13.2121C74.3986 12.9697 74.2179 12.7272 73.9168 12.7272H73.2544C71.2673 12.7272 69.521 13.7575 68.4973 15.3333V13.3939L68.7984 13.0909C71.0264 10.9091 71.0264 7.2727 68.7984 5.09088L68.3166 4.60603C68.136 4.42421 67.8349 4.42421 67.6542 4.60603L67.1725 5.09088C66.0886 6.18179 65.5466 7.57573 65.5466 9.09088C65.5466 10.606 66.1488 12 67.1725 13.0909L67.4736 13.3939V15.3333C66.4499 13.7575 64.7036 12.7272 62.7164 12.7272H62.054C61.8131 12.7272 61.5723 12.9091 61.5723 13.2121V13.9394C61.5723 17.0909 64.1014 19.6363 67.2327 19.6363H67.4134V22.1818C66.3897 20.606 64.6433 19.5757 62.6562 19.5757H61.9938C61.7529 19.5757 61.512 19.7575 61.512 20.0606V20.606C61.512 23.7575 64.0412 26.303 67.1725 26.303H67.3531V28.8485C66.3294 27.2727 64.5831 26.2424 62.596 26.2424H61.9336C61.6927 26.2424 61.4518 26.4242 61.4518 26.7272V27.3939C61.4518 30.5454 63.981 33.0909 67.1123 33.0909H67.2929V35.6969C63.2583 34.2424 59.2238 33.5151 55.1892 33.4545V29.2121H55.3698C58.5012 29.2121 61.0303 26.6666 61.0303 23.5151V22.8485C61.0303 22.606 60.8496 22.3636 60.5486 22.3636H59.8862C57.899 22.3636 56.1527 23.3939 55.129 24.9697V22.4242H55.3096C58.4409 22.4242 60.9701 19.8788 60.9701 16.7272V16.0606C60.9701 15.8182 60.7894 15.5757 60.4883 15.5757H59.8259C57.8388 15.5757 56.0925 16.606 55.0688 18.1818V15.6363H55.2494C58.3807 15.6363 60.9099 13.0909 60.9099 9.93936V9.2727C60.9099 9.03027 60.7292 8.78785 60.4281 8.78785H59.7657C57.7785 8.78785 56.0322 9.81815 55.0085 11.3939V9.45452L55.3096 9.15149C57.5377 6.96967 57.5377 3.3333 55.3096 1.15149L54.8279 0.666637C54.6472 0.484819 54.3462 0.484819 54.1655 0.666637L54.3462 1.21209C52.1181 3.45452 52.1181 7.03027 54.3462 9.21209L54.6472 9.51512V11.5151C53.6235 9.93936 51.8772 8.90906 49.8901 8.90906H49.2277C48.9868 8.90906 48.7459 9.09088 48.7459 9.39391V10.0606C48.7459 13.2121 51.2751 15.7575 54.4064 15.7575H54.587V18.303C53.5633 16.7272 51.817 15.6969 49.8298 15.6969H49.1674C48.9266 15.6969 48.6857 15.8788 48.6857 16.1818V16.8485C48.6857 20 51.2148 22.5454 54.3462 22.5454H54.5268V25.0909C53.5031 23.5151 51.7568 22.4848 49.7696 22.4848H49.1072C48.8664 22.4848 48.6255 22.6666 48.6255 22.9697V23.6363C48.6255 26.7878 51.1546 29.3333 54.2859 29.3333H54.4666V33.5757C50.432 33.6363 46.3974 34.3636 42.3629 35.7575V33.1515H42.5435C45.6748 33.1515 48.204 30.606 48.204 27.4545V26.7879C48.204 26.5454 48.0233 26.303 47.7222 26.303H47.0598C45.0727 26.303 43.3263 27.3333 42.3026 28.9091V26.3636H42.4833C45.6146 26.3636 48.1437 23.8182 48.1437 20.6666V20C48.1437 19.7575 47.9631 19.5151 47.662 19.5151H46.9996C45.0124 19.5151 43.2661 20.5454 42.2424 22.1212V19.5757H42.4231C45.5544 19.5757 48.0835 17.0303 48.0835 13.8788V13.2121C48.0835 12.9697 47.9029 12.7272 47.6018 12.7272H46.9394C44.9522 12.7272 43.2059 13.7575 42.1822 15.3333V13.3939L42.4833 13.0909C44.7113 10.9091 44.7113 7.2727 42.4833 5.09088V4.60603C42.3026 4.42421 42.0016 4.42421 41.8209 4.60603L41.3392 5.09088C40.2553 6.18179 39.7133 7.57573 39.7133 9.09088C39.7133 10.606 40.3155 12 41.3392 13.0909L41.6403 13.3939V15.3333C40.6166 13.7575 38.8703 12.7272 36.8831 12.7272H36.3411C36.1002 12.7272 35.8594 12.9091 35.8594 13.2121V13.9394C35.8594 17.0909 38.3885 19.6363 41.5198 19.6363H41.7005V22.1818C40.6768 20.606 38.9305 19.5757 36.9433 19.5757H36.3411C36.04 19.5151 35.8594 19.6969 35.8594 20V20.606C35.8594 23.7575 38.3885 26.303 41.5198 26.303H41.7005V28.8485C40.6768 27.2727 38.9305 26.2424 36.9433 26.2424H36.3411C36.1002 26.2424 35.8594 26.4242 35.8594 26.7272V27.3939C35.8594 30.5454 38.3885 33.0909 41.5198 33.0909H41.7005V36C39.8337 36.7272 37.967 37.5757 36.1002 38.606C35.8594 38.7272 35.7992 39.0303 35.9196 39.2121C36.04 39.4545 36.3411 39.5151 36.5218 39.3939C48.7459 32.6666 61.2109 32.6666 73.7362 39.3939H73.9771C74.1577 39.3939 74.2781 39.3333 74.3986 39.1515C74.519 38.9091 74.4588 38.6666 74.2179 38.5454C72.3512 37.5151 70.4844 36.6666 68.6177 36V33.0303H68.7984C71.9297 33.0303 74.4588 30.4848 74.4588 27.3333V26.6666C74.4588 26.4242 74.2781 26.1818 73.9771 26.1818H73.3147C71.3275 26.1818 69.5812 27.2121 68.5575 28.7879V26.2424H68.7381C71.8694 26.2424 74.3986 23.6969 74.3986 20.5454V20C74.3986 19.7575 74.2179 19.5151 73.9168 19.5151H73.2544C71.2673 19.5151 69.521 20.5454 68.4973 22.1212V19.5757H68.7381Z" fill="white"/>
</g>
<defs>
<clipPath id="clip0_1918_43471">
<rect width="35.8974" height="28.9032" fill="white" transform="translate(0 9.03223)"/>
</clipPath>
<clipPath id="clip1_1918_43471">
<rect width="39.7436" height="40" fill="white" transform="translate(35.2568)"/>
</clipPath>
</defs>
</svg>
