<svg width="76" height="34" viewBox="0 0 76 34" fill="none" xmlns="http://www.w3.org/2000/svg">
<g clip-path="url(#clip0_2914_48652)">
<path d="M53.0875 22.2289C50.7244 18.6335 47.4333 16.8731 43.0737 17.6414C38.605 18.4321 36.1717 21.2667 35.3762 25.526C34.5652 25.429 33.7463 25.332 32.9274 25.2276C29.5349 24.8099 26.1346 24.3922 22.7421 23.9744C18.8738 23.497 14.9978 23.0122 11.1295 22.5348C10.3341 22.4378 9.54638 22.3334 8.75089 22.2438C7.63565 22.1096 7.10533 21.4159 7.37829 20.379C8.33755 16.8209 9.29682 13.2702 10.2639 9.71203C10.4121 9.16004 10.6148 9.02577 11.2777 9.02577C15.1226 9.02577 18.9596 9.02577 22.8045 9.02577C23.7325 9.02577 23.8183 8.96609 24.0835 8.11572C24.6294 6.34038 25.1831 4.56504 25.7368 2.7897C25.924 2.19295 26.0644 2.08105 26.7273 2.08105C33.4655 2.08105 40.2037 2.08105 46.942 2.08105C47.6517 2.08105 47.8154 2.21532 47.9246 2.87921C48.2522 4.87833 48.5719 6.87 48.8917 8.86912C49.0711 10.0179 49.5312 10.4058 50.74 10.4058C52.2608 10.4058 53.7816 10.4058 55.3024 10.4058C56.1446 10.4058 56.4098 10.734 56.1836 11.5098C55.1932 14.9635 54.2027 18.4172 53.2123 21.8709C53.1811 21.9678 53.1421 22.0723 53.0875 22.2289Z" fill="white"/>
<path d="M44.7968 18.8574C40.4294 18.8275 36.8653 22.1992 36.8497 26.3839C36.8263 30.5761 40.328 33.9627 44.711 33.9925C49.0628 34.0224 52.6502 30.6358 52.6814 26.466C52.7048 22.3036 49.1719 18.8872 44.7968 18.8574ZM44.7032 30.5686C42.2699 30.5239 40.3748 28.6441 40.4216 26.3242C40.4684 24.079 42.4649 22.2439 44.828 22.2887C47.23 22.3335 49.1251 24.2132 49.0784 26.5107C49.0316 28.7858 47.0662 30.6134 44.7032 30.5686Z" fill="white"/>
<path d="M65.386 33.9999C62.984 33.9999 60.5819 33.9999 58.1798 33.9999C56.4641 33.9999 55.5126 32.8511 55.9182 31.2623C56.5733 28.6739 57.2284 26.0854 57.8913 23.5045C58.0473 22.8779 58.211 22.7585 58.8973 22.7585C59.7162 22.7585 60.5273 22.766 61.3462 22.7585C61.8531 22.7511 62.2665 22.9152 62.633 23.2658C66.1035 26.5927 69.5896 29.9047 73.0601 33.2316C73.2083 33.3733 73.2395 33.612 73.3331 33.8059C73.1381 33.8731 72.9353 33.9924 72.7403 33.9924C70.2837 33.9999 67.8349 33.9999 65.386 33.9999Z" fill="white"/>
<path d="M23.9895 3.47607C23.5684 4.81877 23.194 6.07941 22.7729 7.33259C22.7339 7.4594 22.4375 7.58621 22.266 7.58621C19.7547 7.60113 17.2435 7.59367 14.7322 7.59367C11.6283 7.59367 8.52434 7.59367 5.42039 7.59367C4.50792 7.59367 4.32075 7.7727 4.31295 8.63799C4.31295 8.80955 4.32074 8.97366 4.29735 9.14523C4.25056 9.51074 4.02439 9.74198 3.63444 9.74944C2.65959 9.76436 1.68473 9.76436 0.709868 9.74944C0.296527 9.74198 0.0313657 9.50328 0.0235668 9.12285C0.00796908 8.23518 -0.046623 7.34005 0.0625612 6.4673C0.288728 4.6472 1.79391 3.48353 3.82162 3.48353C9.83455 3.47607 15.8475 3.48353 21.8682 3.48353C22.5467 3.47607 23.233 3.47607 23.9895 3.47607Z" fill="white"/>
<path d="M16.3156 24.3775C13.547 24.37 11.3087 26.4885 11.2853 29.144C11.2619 31.807 13.4924 33.9852 16.2688 34.0001C19.053 34.015 21.3147 31.8816 21.3303 29.2112C21.3459 26.5482 19.0998 24.3849 16.3156 24.3775ZM16.3 31.255C15.099 31.255 14.1319 30.3226 14.1397 29.1813C14.1397 28.0251 15.1068 27.1076 16.3078 27.1076C17.5088 27.1076 18.4759 28.04 18.4759 29.1813C18.4681 30.3301 17.4854 31.2625 16.3 31.255Z" fill="white"/>
<path d="M75.8905 26.8017C75.3602 25.5262 74.8143 24.2506 74.2294 22.99C74.0968 22.714 73.8082 22.4305 73.5197 22.3037C72.2329 21.7517 70.9227 21.2668 69.628 20.7447C69.2381 20.588 68.8638 20.588 68.4738 20.7447C67.109 21.2967 65.7286 21.8338 64.356 22.3783C64.2468 22.4231 64.1454 22.4902 64.1064 22.5126C65.4011 23.7583 66.6801 24.9891 67.9669 26.2199C68.7468 25.6903 69.4799 25.6679 70.0726 26.1826C70.6887 26.7122 70.7043 27.3985 70.135 28.3458C71.414 29.5766 72.6774 30.8 74.0188 32.0904C74.6817 30.5314 75.3446 29.0246 75.9607 27.5029C76.0387 27.309 75.9763 27.0106 75.8905 26.8017ZM68.0059 24.3401C67.5613 23.9224 67.1246 23.5121 66.6567 23.072C67.0778 22.9079 67.5068 22.7363 68.0059 22.5349V24.3401ZM70.2754 24.5341V22.6916C70.7745 22.8855 71.2034 23.0571 71.6168 23.2137C71.1566 23.6688 70.7277 24.094 70.2754 24.5341ZM73.4339 29.5692C72.9972 29.1216 72.5916 28.7039 72.1861 28.2936H73.9876C73.7926 28.7412 73.6133 29.1514 73.4339 29.5692ZM72.3733 26.3019C72.81 25.8991 73.2545 25.5038 73.7069 25.0861C73.855 25.4143 74.0344 25.8245 74.245 26.3019H72.3733Z" fill="white"/>
<path d="M59.7243 0C58.1255 0 56.5267 0 54.9202 0C53.2902 0 51.6524 0 50.0225 0C49.2348 0 48.9774 0.290917 49.1022 1.0294C49.4844 3.41641 49.8743 5.81088 50.2642 8.19789C50.3734 8.84686 50.5606 9.01097 51.2391 9.01097C53.3526 9.01097 55.4661 9.01097 57.5796 9.01097C58.2191 9.01097 58.3907 8.8767 58.5544 8.28741C59.2329 5.89294 59.9192 3.50592 60.5977 1.11145C60.8161 0.328214 60.5588 0.00745941 59.7243 0ZM58.9054 1.87977C58.3985 3.66257 57.8837 5.44537 57.3846 7.23563C57.3066 7.53401 57.1896 7.66082 56.8387 7.66082C55.2399 7.6459 53.6412 7.65336 52.0346 7.65336C51.8006 7.65336 51.5978 7.66082 51.5511 7.35498C51.2469 5.41553 50.9349 3.48355 50.623 1.55156C50.6152 1.51426 50.6386 1.4695 50.6542 1.39491H59.0068C58.9756 1.56648 58.9522 1.72312 58.9054 1.87977Z" fill="white"/>
<path d="M35.9295 29.6961C35.0872 29.6514 34.2293 29.6141 33.3715 29.5618C30.0335 29.3604 26.7034 29.1441 23.3655 28.9651C22.8976 28.9427 22.7572 28.8084 22.7104 28.3609C22.5934 27.227 22.0943 26.22 21.2832 25.2205C22.0163 25.31 22.6402 25.3846 23.2641 25.4592C27.1791 25.944 31.0942 26.4363 35.017 26.9063C35.3134 26.9436 35.407 27.0331 35.446 27.3166C35.5785 28.0923 35.7579 28.8681 35.9295 29.6961Z" fill="white"/>
<path d="M56.2766 23.9521C55.6761 26.3093 55.1068 28.5322 54.5297 30.785C54.0384 30.7626 53.5626 30.7402 53.0869 30.7253C53.3677 29.9122 53.6718 29.1439 53.8902 28.3532C54.1944 27.2492 53.9526 24.713 53.9682 24.5787L54.3503 23.9596L54.7403 23.9521H56.2766Z" fill="white"/>
<path d="M9.89594 23.7957C10.7382 23.9001 11.5571 24.012 12.5086 24.1313C11.3075 25.0414 10.512 26.1155 10.0675 27.4433C9.80235 27.0703 9.70876 24.8251 9.89594 23.7957Z" fill="white"/>
<path d="M47.6198 26.4585C47.5965 27.9802 46.3096 29.1812 44.7187 29.1588C43.1511 29.1364 41.8799 27.9205 41.8799 26.4361C41.8799 24.9069 43.1823 23.6761 44.7889 23.6911C46.372 23.6985 47.6432 24.9442 47.6198 26.4585Z" fill="white"/>
</g>
<defs>
<clipPath id="clip0_2914_48652">
<rect width="76" height="34" fill="white"/>
</clipPath>
</defs>
</svg>
