<svg width="76" height="42" viewBox="0 0 76 42" fill="none" xmlns="http://www.w3.org/2000/svg">
<g clip-path="url(#clip0_3053_48492)">
<path d="M53.0875 26.2289C50.7244 22.6335 47.4333 20.8731 43.0737 21.6414C38.605 22.4321 36.1717 25.2667 35.3762 29.526C34.5652 29.429 33.7463 29.332 32.9274 29.2276C29.5349 28.8099 26.1346 28.3922 22.7421 27.9744C18.8738 27.497 14.9978 27.0122 11.1295 26.5348C10.3341 26.4378 9.54638 26.3334 8.75089 26.2438C7.63565 26.1096 7.10533 25.4159 7.37829 24.379C8.33755 20.8209 9.29682 17.2702 10.2639 13.712C10.4121 13.16 10.6148 13.0258 11.2777 13.0258C15.1226 13.0258 18.9596 13.0258 22.8045 13.0258C23.7325 13.0258 23.8183 12.9661 24.0835 12.1157C24.6294 10.3404 25.1831 8.56504 25.7368 6.7897C25.924 6.19295 26.0644 6.08105 26.7273 6.08105C33.4655 6.08105 40.2037 6.08105 46.942 6.08105C47.6517 6.08105 47.8154 6.21532 47.9246 6.87921C48.2522 8.87833 48.5719 10.87 48.8917 12.8691C49.0711 14.0179 49.5312 14.4058 50.74 14.4058C52.2608 14.4058 53.7816 14.4058 55.3024 14.4058C56.1446 14.4058 56.4098 14.734 56.1836 15.5098C55.1932 18.9635 54.2027 22.4172 53.2123 25.8709C53.1811 25.9678 53.1421 26.0723 53.0875 26.2289Z" fill="white"/>
<path d="M44.7968 22.8574C40.4294 22.8275 36.8653 26.1992 36.8497 30.3839C36.8263 34.5761 40.328 37.9627 44.711 37.9925C49.0628 38.0224 52.6502 34.6358 52.6814 30.466C52.7048 26.3036 49.1719 22.8872 44.7968 22.8574ZM44.7032 34.5686C42.2699 34.5239 40.3748 32.6441 40.4216 30.3242C40.4684 28.079 42.4649 26.2439 44.828 26.2887C47.23 26.3335 49.1251 28.2132 49.0784 30.5107C49.0316 32.7858 47.0662 34.6134 44.7032 34.5686Z" fill="white"/>
<path d="M65.386 37.9999C62.984 37.9999 60.5819 37.9999 58.1798 37.9999C56.4641 37.9999 55.5126 36.8511 55.9182 35.2623C56.5733 32.6739 57.2284 30.0854 57.8913 27.5045C58.0473 26.8779 58.211 26.7585 58.8973 26.7585C59.7162 26.7585 60.5273 26.766 61.3462 26.7585C61.8531 26.7511 62.2665 26.9152 62.633 27.2658C66.1035 30.5927 69.5896 33.9047 73.0601 37.2316C73.2083 37.3733 73.2395 37.612 73.3331 37.8059C73.1381 37.8731 72.9353 37.9924 72.7403 37.9924C70.2837 37.9999 67.8349 37.9999 65.386 37.9999Z" fill="white"/>
<path d="M23.9895 7.47607C23.5684 8.81877 23.194 10.0794 22.7729 11.3326C22.7339 11.4594 22.4375 11.5862 22.266 11.5862C19.7547 11.6011 17.2435 11.5937 14.7322 11.5937C11.6283 11.5937 8.52434 11.5937 5.42039 11.5937C4.50792 11.5937 4.32075 11.7727 4.31295 12.638C4.31295 12.8096 4.32075 12.9737 4.29735 13.1452C4.25056 13.5107 4.02439 13.742 3.63444 13.7494C2.65959 13.7644 1.68473 13.7644 0.709868 13.7494C0.296527 13.742 0.0313657 13.5033 0.0235668 13.1228C0.00796908 12.2352 -0.046623 11.34 0.0625612 10.4673C0.288728 8.6472 1.79391 7.48353 3.82162 7.48353C9.83455 7.47607 15.8475 7.48353 21.8682 7.48353C22.5467 7.47607 23.233 7.47607 23.9895 7.47607Z" fill="white"/>
<path d="M16.3156 28.3775C13.547 28.37 11.3087 30.4885 11.2853 33.144C11.2619 35.807 13.4924 37.9852 16.2688 38.0001C19.053 38.015 21.3147 35.8816 21.3303 33.2112C21.3459 30.5482 19.0998 28.3849 16.3156 28.3775ZM16.3 35.255C15.099 35.255 14.1319 34.3226 14.1397 33.1813C14.1397 32.0251 15.1068 31.1076 16.3078 31.1076C17.5088 31.1076 18.4759 32.04 18.4759 33.1813C18.4681 34.3301 17.4854 35.2625 16.3 35.255Z" fill="white"/>
<path d="M75.8905 30.8017C75.3602 29.5262 74.8143 28.2506 74.2294 26.99C74.0968 26.714 73.8082 26.4305 73.5197 26.3037C72.2329 25.7517 70.9227 25.2668 69.628 24.7447C69.2381 24.588 68.8638 24.588 68.4738 24.7447C67.109 25.2967 65.7286 25.8338 64.356 26.3783C64.2468 26.4231 64.1454 26.4902 64.1064 26.5126C65.4011 27.7583 66.6801 28.9891 67.9669 30.2199C68.7468 29.6903 69.4799 29.6679 70.0726 30.1826C70.6887 30.7122 70.7043 31.3985 70.135 32.3458C71.414 33.5766 72.6774 34.8 74.0188 36.0904C74.6817 34.5314 75.3446 33.0246 75.9607 31.5029C76.0387 31.309 75.9763 31.0106 75.8905 30.8017ZM68.0059 28.3401C67.5613 27.9224 67.1246 27.5121 66.6567 27.072C67.0778 26.9079 67.5068 26.7363 68.0059 26.5349V28.3401ZM70.2754 28.5341V26.6916C70.7745 26.8855 71.2034 27.0571 71.6168 27.2137C71.1566 27.6688 70.7277 28.094 70.2754 28.5341ZM73.4339 33.5692C72.9972 33.1216 72.5916 32.7039 72.1861 32.2936H73.9876C73.7926 32.7412 73.6133 33.1514 73.4339 33.5692ZM72.3732 30.3019C72.81 29.8991 73.2545 29.5038 73.7069 29.0861C73.855 29.4143 74.0344 29.8245 74.245 30.3019H72.3732Z" fill="white"/>
<path d="M59.7243 4C58.1255 4 56.5267 4 54.9202 4C53.2902 4 51.6524 4 50.0225 4C49.2348 4 48.9774 4.29092 49.1022 5.0294C49.4844 7.41641 49.8743 9.81088 50.2642 12.1979C50.3734 12.8469 50.5606 13.011 51.2391 13.011C53.3526 13.011 55.4661 13.011 57.5796 13.011C58.2191 13.011 58.3907 12.8767 58.5544 12.2874C59.2329 9.89294 59.9192 7.50592 60.5977 5.11145C60.8161 4.32821 60.5588 4.00746 59.7243 4ZM58.9054 5.87977C58.3985 7.66257 57.8837 9.44537 57.3846 11.2356C57.3066 11.534 57.1896 11.6608 56.8387 11.6608C55.2399 11.6459 53.6412 11.6534 52.0346 11.6534C51.8006 11.6534 51.5978 11.6608 51.5511 11.355C51.2469 9.41553 50.9349 7.48355 50.623 5.55156C50.6152 5.51426 50.6386 5.4695 50.6542 5.39491H59.0068C58.9756 5.56648 58.9522 5.72312 58.9054 5.87977Z" fill="white"/>
<path d="M35.9295 33.6961C35.0872 33.6514 34.2293 33.6141 33.3715 33.5618C30.0335 33.3604 26.7034 33.1441 23.3655 32.9651C22.8976 32.9427 22.7572 32.8084 22.7104 32.3609C22.5934 31.227 22.0943 30.22 21.2832 29.2205C22.0163 29.31 22.6402 29.3846 23.2641 29.4592C27.1791 29.944 31.0942 30.4363 35.017 30.9063C35.3134 30.9436 35.407 31.0331 35.446 31.3166C35.5785 32.0923 35.7579 32.8681 35.9295 33.6961Z" fill="white"/>
<path d="M56.2766 27.9521C55.6761 30.3093 55.1068 32.5322 54.5297 34.785C54.0384 34.7626 53.5626 34.7402 53.0869 34.7253C53.3677 33.9122 53.6718 33.1439 53.8902 32.3532C54.1944 31.2492 53.9526 28.713 53.9682 28.5787L54.3503 27.9596L54.7403 27.9521H56.2766Z" fill="white"/>
<path d="M9.89594 27.7957C10.7382 27.9001 11.5571 28.012 12.5086 28.1313C11.3075 29.0414 10.512 30.1155 10.0675 31.4433C9.80235 31.0703 9.70876 28.8251 9.89594 27.7957Z" fill="white"/>
<path d="M47.6198 30.4585C47.5965 31.9802 46.3096 33.1812 44.7187 33.1588C43.1511 33.1364 41.8799 31.9205 41.8799 30.4361C41.8799 28.9069 43.1823 27.6761 44.7889 27.6911C46.372 27.6985 47.6432 28.9442 47.6198 30.4585Z" fill="white"/>
</g>
<defs>
<clipPath id="clip0_3053_48492">
<rect width="76" height="34" fill="white" transform="translate(0 4)"/>
</clipPath>
</defs>
</svg>
