<svg width="40" height="40" viewBox="0 0 40 40" fill="none" xmlns="http://www.w3.org/2000/svg">
<path d="M35.5698 13.3001L35.8235 13.0538C35.8753 13.0047 35.9166 12.9456 35.9448 12.88C35.9731 12.8143 35.9876 12.7437 35.9876 12.6723C35.9876 12.6009 35.9731 12.5302 35.9448 12.4646C35.9166 12.399 35.8753 12.3398 35.8235 12.2907L29.8623 6.52008C29.7558 6.41809 29.6141 6.36115 29.4666 6.36115C29.3192 6.36115 29.1775 6.41809 29.071 6.52008C29.071 6.52008 27.8341 7.22571 27.6098 5.37196C27.5204 4.62633 27.3516 4.16008 27.1298 3.89383C27.1023 3.86321 25.8729 2.65821 25.8729 2.65821C25.7663 2.5565 25.6246 2.49976 25.4773 2.49976C25.3299 2.49976 25.1882 2.5565 25.0816 2.65821L20.6198 6.97821C20.568 7.02748 20.5267 7.08677 20.4985 7.15247C20.4704 7.21817 20.4558 7.28891 20.4558 7.3604C20.4558 7.43188 20.4704 7.50263 20.4985 7.56833C20.5267 7.63402 20.568 7.69331 20.6198 7.74258C20.6198 7.74258 21.8641 8.93321 21.8966 8.95821C22.171 9.17383 22.6523 9.33696 23.4235 9.42321C25.3385 9.64071 24.6085 10.837 24.6085 10.837C24.5567 10.8863 24.5154 10.9457 24.4872 11.0115C24.459 11.0773 24.4445 11.1482 24.4445 11.2198C24.4445 11.2914 24.459 11.3622 24.4872 11.428C24.5154 11.4938 24.5567 11.5532 24.6085 11.6026L25.9016 12.8545L22.5535 16.0951L22.0579 15.6151C22.0579 15.6151 20.2973 16.707 18.3629 18.5807C16.226 20.6482 15.0285 23.3801 12.2091 26.1082C7.96975 30.2113 5.90725 31.1413 4.19788 32.3795C3.55288 32.8451 3.6135 32.9188 4.20413 33.4907L6.04163 35.2707L7.87913 37.0495C8.46975 37.6195 8.54663 37.6782 9.02913 37.0557C10.3073 35.402 11.3454 33.4801 15.5848 29.3751C18.4035 26.6482 21.2279 25.4882 23.3623 23.4207C25.2973 21.5476 26.426 19.8438 26.426 19.8438L25.9304 19.3632L29.2766 16.1226L30.5698 17.3751C30.6765 17.4763 30.818 17.5325 30.965 17.5323C31.112 17.5321 31.2534 17.4753 31.3598 17.3738L31.5554 17.1845C32.6991 18.1188 36.3866 21.5051 35.2204 25.4588C35.061 25.9995 34.786 26.4813 34.9266 26.6182C35.1185 26.8026 35.8523 26.0945 36.2798 25.6776C41.711 20.3813 36.6491 14.4457 35.5698 13.3001" fill="white"/>
<path d="M25.4809 22.7799C24.9887 23.3257 24.4784 23.855 23.9509 24.3668C23.1503 25.1418 22.2722 25.8168 21.3422 26.4724L30.1953 35.3124C30.4562 35.5702 30.8082 35.7148 31.175 35.7148C31.5418 35.7148 31.8938 35.5702 32.1547 35.3124L34.114 33.3562C34.3733 33.0967 34.519 32.7449 34.519 32.378C34.519 32.0112 34.3733 31.6594 34.114 31.3999L25.4809 22.7799ZM7.86278 18.3618L10.5409 15.688L15.469 20.6087C16.1215 19.7474 16.7959 18.9324 17.5659 18.1874C18.1278 17.6437 18.7088 17.12 19.3078 16.6174L14.4584 11.7762L17.1353 9.10365C17.2654 8.97373 17.3687 8.81942 17.4392 8.64954C17.5096 8.47966 17.5459 8.29756 17.5459 8.11365C17.5459 7.92974 17.5096 7.74764 17.4392 7.57776C17.3687 7.40789 17.2654 7.25357 17.1353 7.12365L12.9153 2.9099C12.6514 2.64787 12.2946 2.50072 11.9227 2.50049C11.5508 2.50025 11.1939 2.64696 10.9297 2.90865L8.25403 5.58115L7.21966 4.54865C6.95912 4.29055 6.60728 4.14565 6.24054 4.14542C5.8738 4.14518 5.52178 4.28963 5.26091 4.5474L3.30216 6.5049C3.04354 6.76449 2.89834 7.11598 2.89834 7.4824C2.89834 7.84883 3.04354 8.20032 3.30216 8.4599L4.33653 9.4924L1.65841 12.1662C1.39682 12.4295 1.25 12.7856 1.25 13.1568C1.25 13.528 1.39682 13.8841 1.65841 14.1474L5.88153 18.3618C6.14494 18.6232 6.50103 18.7699 6.87216 18.7699C7.24329 18.7699 7.59937 18.6232 7.86278 18.3618" fill="white"/>
</svg>
