<svg width="44" height="43" viewBox="0 0 44 43" fill="none" xmlns="http://www.w3.org/2000/svg">
<path d="M43.2262 13.8199L22.1901 0.589435C22.07 0.513792 21.9308 0.473633 21.7886 0.473633C21.6465 0.473633 21.5073 0.513792 21.3872 0.589435L0.351094 13.8199C-0.285032 14.2193 -0.000172206 15.1982 0.752279 15.1982H42.8245C43.5775 15.1982 43.8623 14.2193 43.2262 13.8199ZM28.5215 12.2102C28.5215 12.4076 28.4427 12.5969 28.3024 12.7365C28.162 12.876 27.9717 12.9544 27.7732 12.9544H15.7528C15.5543 12.9544 15.364 12.876 15.2236 12.7365C15.0833 12.5969 15.0044 12.4076 15.0044 12.2102V12.1191C15.0046 11.9217 15.0834 11.7325 15.2238 11.5929C15.3641 11.4534 15.5543 11.3749 15.7528 11.3748H27.7732C27.9716 11.3749 28.1619 11.4534 28.3022 11.5929C28.4425 11.7325 28.5214 11.9217 28.5215 12.1191V12.2102ZM28.5215 9.2796C28.5215 9.47699 28.4427 9.6663 28.3024 9.80587C28.162 9.94545 27.9717 10.0239 27.7732 10.0239H15.7528C15.5543 10.0239 15.364 9.94545 15.2236 9.80587C15.0833 9.6663 15.0044 9.47699 15.0044 9.2796V9.18851C15.0046 8.99115 15.0834 8.80192 15.2238 8.66237C15.3641 8.52282 15.5543 8.44437 15.7528 8.44424H27.7732C27.9716 8.44437 28.1619 8.52282 28.3022 8.66237C28.4425 8.80192 28.5214 8.99115 28.5215 9.18851V9.2796Z" fill="white"/>
<path d="M21.7787 31.9373C20.7621 31.9373 19.7454 31.9373 18.7285 31.9373C18.2695 31.9373 18.0986 31.767 18.0986 31.3154C18.0986 29.5043 18.0986 27.6934 18.0986 25.8827C18.0986 25.4104 18.2302 25.2758 18.6968 25.2731C19.1773 25.2709 19.6583 25.2795 20.1389 25.269C20.3279 25.2652 20.4035 25.3164 20.3986 25.5187C20.3846 25.9323 20.3918 26.3497 20.3956 26.7653C20.399 27.1232 20.5408 27.2755 20.8916 27.2793C21.4906 27.2856 22.0896 27.2856 22.6887 27.2793C23.0366 27.2752 23.1837 27.1161 23.1863 26.7641C23.1893 26.3411 23.1924 25.9177 23.1863 25.4942C23.1837 25.3408 23.2166 25.2663 23.3924 25.2686C23.8968 25.278 24.4012 25.2686 24.9048 25.2739C25.2851 25.2791 25.4341 25.4314 25.4341 25.8082C25.4359 27.6736 25.4359 29.5393 25.4341 31.4052C25.4341 31.7813 25.2791 31.9317 24.8995 31.9351C23.859 31.9388 22.8199 31.9351 21.7783 31.9351L21.7787 31.9373Z" fill="white"/>
<path d="M21.5001 25.2788H22.0328C22.09 25.2788 22.1448 25.3014 22.1852 25.3416C22.2256 25.3818 22.2483 25.4363 22.2483 25.4932V26.358H21.2842V25.4932C21.2842 25.465 21.2898 25.4371 21.3006 25.411C21.3115 25.385 21.3274 25.3614 21.3474 25.3415C21.3675 25.3215 21.3913 25.3058 21.4175 25.295C21.4437 25.2843 21.4717 25.2788 21.5001 25.2788Z" fill="white"/>
<path d="M16.9271 39.9205C15.9105 39.9205 14.8938 39.9205 13.877 39.9205C13.418 39.9205 13.2471 39.7502 13.2471 39.2985C13.2471 37.4875 13.2471 35.6766 13.2471 33.8659C13.2471 33.3935 13.3786 33.2585 13.8448 33.2563C14.3258 33.254 14.8067 33.2627 15.2873 33.2522C15.4763 33.248 15.552 33.2995 15.547 33.5018C15.5331 33.9155 15.5402 34.3329 15.544 34.7484C15.5474 35.1064 15.6892 35.2583 16.0401 35.2625C16.639 35.2687 17.238 35.2687 17.8372 35.2625C18.185 35.2583 18.3321 35.0993 18.3348 34.7473C18.3378 34.3239 18.3408 33.9004 18.3329 33.4774C18.3298 33.324 18.3631 33.2491 18.5389 33.2518C19.0429 33.2612 19.5477 33.2518 20.0513 33.257C20.4317 33.2623 20.5807 33.4146 20.5807 33.7914C20.5824 35.6571 20.5824 37.5227 20.5807 39.3884C20.5807 39.7644 20.426 39.9149 20.046 39.9182C19.0059 39.922 17.9665 39.9182 16.9252 39.9182L16.9271 39.9205Z" fill="white"/>
<path d="M16.6487 33.2632H17.1822C17.2105 33.2632 17.2386 33.2687 17.2647 33.2795C17.2909 33.2903 17.3146 33.3061 17.3346 33.326C17.3546 33.3459 17.3705 33.3695 17.3813 33.3955C17.3922 33.4215 17.3977 33.4494 17.3977 33.4775V34.3424H16.4336V33.4775C16.4336 33.4207 16.4562 33.3663 16.4966 33.3261C16.5369 33.2859 16.5916 33.2633 16.6487 33.2632Z" fill="white"/>
<path d="M26.6439 39.9205C25.6271 39.9205 24.6104 39.9205 23.5938 39.9205C23.1348 39.9205 22.9642 39.7502 22.9639 39.2985C22.9639 37.4875 22.9639 35.6766 22.9639 33.8659C22.9639 33.3935 23.0951 33.2585 23.5616 33.2563C24.0422 33.254 24.5231 33.2627 25.0037 33.2522C25.1928 33.248 25.2684 33.2995 25.2635 33.5018C25.2495 33.9155 25.2567 34.3329 25.2608 34.7484C25.2638 35.1064 25.406 35.2583 25.7569 35.2625C26.3558 35.2687 26.9547 35.2687 27.5536 35.2625C27.9018 35.2583 28.0485 35.0993 28.0512 34.7473C28.0542 34.3239 28.0572 33.9004 28.0512 33.4774C28.0485 33.324 28.0818 33.2491 28.2572 33.2518C28.7616 33.2612 29.2664 33.2518 29.7696 33.257C30.15 33.2623 30.299 33.4146 30.299 33.7914C30.3007 35.6571 30.3007 37.5227 30.299 39.3884C30.299 39.7644 30.144 39.9149 29.7643 39.9182C28.7238 39.922 27.6848 39.9182 26.6431 39.9182L26.6439 39.9205Z" fill="white"/>
<path d="M26.3655 33.2632H26.899C26.9273 33.2632 26.9554 33.2687 26.9815 33.2795C27.0076 33.2903 27.0314 33.3061 27.0514 33.326C27.0714 33.3459 27.0873 33.3695 27.0981 33.3955C27.109 33.4215 27.1145 33.4494 27.1145 33.4775V34.3424H26.1504V33.4775C26.1504 33.4207 26.173 33.3663 26.2134 33.3261C26.2537 33.2859 26.3084 33.2633 26.3655 33.2632Z" fill="white"/>
<path d="M38.3105 14.8035H5.26626C5.10836 14.8035 4.95693 14.8659 4.84528 14.9769C4.73362 15.0879 4.6709 15.2386 4.6709 15.3956V42.0491C4.6709 42.2062 4.73362 42.3568 4.84528 42.4678C4.95693 42.5789 5.10836 42.6412 5.26626 42.6412H38.3105C38.4684 42.6412 38.6198 42.5789 38.7315 42.4678C38.8431 42.3568 38.9058 42.2062 38.9058 42.0491V15.3965C38.906 15.3187 38.8907 15.2416 38.8608 15.1696C38.8309 15.0977 38.7871 15.0323 38.7318 14.9772C38.6765 14.9221 38.6108 14.8784 38.5385 14.8486C38.4662 14.8188 38.3887 14.8035 38.3105 14.8035ZM33.5279 38.7439C33.5274 38.9038 33.4631 39.0571 33.3492 39.1701C33.2353 39.283 33.081 39.3465 32.9201 39.3465H10.6566C10.4954 39.3465 10.3408 39.2828 10.2267 39.1695C10.1127 39.0561 10.0486 38.9024 10.0484 38.742V21.5483C10.0486 21.3879 10.1127 21.2342 10.2267 21.1208C10.3408 21.0075 10.4954 20.9438 10.6566 20.9438H32.9201C33.0813 20.9438 33.2359 21.0075 33.3499 21.1209C33.4638 21.2342 33.5279 21.388 33.5279 21.5483V38.7439Z" fill="white"/>
</svg>
