<svg width="40" height="40" viewBox="0 0 40 40" fill="none" xmlns="http://www.w3.org/2000/svg">
<g clip-path="url(#clip0_1884_39951)">
<path d="M2.02 0L0 2.02L3.55846 8.17385L5.86615 7.83538L19.9523 21.9231L18.7508 23.0769C18.1354 23.6923 18.1354 24.6246 18.7508 25.24L19.3754 25.8662C19.9908 26.4815 20.9323 26.4815 21.3938 25.8662L23.2215 27.6923C23.0677 28.6154 23.2215 29.7123 23.9908 30.4815L32.3077 38.7508C34 40.4431 36.7692 40.4431 38.4615 38.7508C40.4615 36.9046 40.4431 34.1446 38.7508 32.4523L30.4815 24.1338C29.7123 23.3646 28.6154 23.0569 27.6923 23.3646L25.6723 21.5385C26.1338 20.9231 26.1338 19.9815 25.6723 19.5185L25.0954 18.9431C24.9555 18.7972 24.7876 18.6812 24.6018 18.6019C24.4159 18.5226 24.2159 18.4818 24.0138 18.4818C23.8118 18.4818 23.6118 18.5226 23.4259 18.6019C23.2401 18.6812 23.0722 18.7972 22.9323 18.9431L21.9231 19.9523L7.83692 5.86615L8.17231 3.55846L2.01846 0L2.02 0ZM32.02 0.0476923C28.9846 -0.204615 24.96 1.80769 23.0769 3.55692C20.76 5.87385 21.1385 8.90308 22.98 11.8277L19.7123 15.0969L22.02 17.6923C23.2508 16.6154 25.0662 16.6154 26.2969 17.6923L26.9231 18.3169L27.0677 18.4615L28.4138 17.1154C31.1954 18.7508 34.0908 18.9862 36.2985 16.7785C38.4523 14.7785 40.7877 9.84615 39.7108 6.92308L35.3846 11.3938C34.7692 12.0092 33.8369 12.0092 33.2215 11.3938L28.7492 6.92308C28.6034 6.78322 28.4873 6.61531 28.4081 6.42945C28.3288 6.24358 28.2879 6.0436 28.2879 5.84154C28.2879 5.63947 28.3288 5.43949 28.4081 5.25363C28.4873 5.06777 28.6034 4.89986 28.7492 4.76L33.2231 0.289231C32.8385 0.153846 32.4538 0.0846154 32.02 0.0476923ZM15.0969 19.2308L9.51846 24.8077C8.91901 24.6745 8.30635 24.61 7.69231 24.6154C3.38462 24.6154 0 28 0 32.3077C0 36.6154 3.38462 40 7.69231 40C12 40 15.3846 36.6154 15.3846 32.3077C15.3846 31.5185 15.26 30.76 15.0477 30.0477L18.3169 26.7785L17.8369 26.1538C16.6062 24.9231 16.6154 23.0585 17.6923 21.8262L15.0954 19.2308H15.0969ZM27.02 26.2508C27.2123 26.2508 27.3938 26.2877 27.5477 26.4431L36.6354 35.5292C36.9431 35.8369 36.9431 36.3262 36.6354 36.6338C36.3277 36.9415 35.8354 36.9415 35.5277 36.6338L26.4431 27.5477C26.1354 27.24 26.1354 26.7508 26.4431 26.4431C26.5969 26.2892 26.8277 26.2508 27.02 26.2508ZM8.75077 28.3154L11.6831 31.2492L10.6246 35.2385L6.63538 36.2969L3.70154 33.3631L4.76 29.3738L8.75077 28.3154V28.3154Z" fill="white"/>
</g>
<defs>
<clipPath id="clip0_1884_39951">
<rect width="40" height="40" fill="white"/>
</clipPath>
</defs>
</svg>
