<svg width="40" height="40" viewBox="0 0 40 40" fill="none" xmlns="http://www.w3.org/2000/svg">
<path d="M3.75 7.5C3.75 6.50544 4.14509 5.55161 4.84835 4.84835C5.55161 4.14509 6.50544 3.75 7.5 3.75H28.4375C29.5149 3.75 30.5483 4.17801 31.3101 4.93988C32.072 5.70175 32.5 6.73506 32.5 7.8125V9.07C34.685 9.8425 36.25 11.9263 36.25 14.375V30.625C36.25 32.1168 35.6574 33.5476 34.6025 34.6025C33.5476 35.6574 32.1168 36.25 30.625 36.25H9.375C7.88316 36.25 6.45242 35.6574 5.39753 34.6025C4.34263 33.5476 3.75 32.1168 3.75 30.625V7.8125H3.7625C3.75405 7.70855 3.74988 7.60429 3.75 7.5V7.5ZM30 7.8125C30 6.95 29.3 6.25 28.4375 6.25H7.5C7.16848 6.25 6.85054 6.3817 6.61612 6.61612C6.3817 6.85054 6.25 7.16848 6.25 7.5C6.25 7.83152 6.3817 8.14946 6.61612 8.38388C6.85054 8.6183 7.16848 8.75 7.5 8.75H30V7.8125ZM26.25 22.5C25.9185 22.5 25.6005 22.6317 25.3661 22.8661C25.1317 23.1005 25 23.4185 25 23.75C25 24.0815 25.1317 24.3995 25.3661 24.6339C25.6005 24.8683 25.9185 25 26.25 25H30C30.3315 25 30.6495 24.8683 30.8839 24.6339C31.1183 24.3995 31.25 24.0815 31.25 23.75C31.25 23.4185 31.1183 23.1005 30.8839 22.8661C30.6495 22.6317 30.3315 22.5 30 22.5H26.25Z" fill="white"/>
</svg>
