<svg width="36" height="36" viewBox="0 0 36 36" fill="none" xmlns="http://www.w3.org/2000/svg">
<path d="M18 0.5C8.33594 0.5 0.5 8.33594 0.5 18C0.5 27.6641 8.33594 35.5 18 35.5C27.6641 35.5 35.5 27.6641 35.5 18C35.5 8.33594 27.6641 0.5 18 0.5ZM18.8711 26.4844L18.8789 27.7227C18.8789 27.8945 18.7383 28.0391 18.5664 28.0391H17.457C17.2852 28.0391 17.1445 27.8984 17.1445 27.7266V26.5C13.6758 26.2422 12.043 24.2656 11.8672 22.1172C11.8516 21.9336 11.9961 21.7773 12.1797 21.7773H13.9844C14.1367 21.7773 14.2695 21.8867 14.293 22.0352C14.4922 23.2734 15.457 24.1992 17.1875 24.4297V18.8555L16.2227 18.6094C14.1797 18.1211 12.2344 16.8477 12.2344 14.207C12.2344 11.3594 14.3984 9.82812 17.1641 9.55859V8.26953C17.1641 8.09766 17.3047 7.95703 17.4766 7.95703H18.5742C18.7461 7.95703 18.8867 8.09766 18.8867 8.26953V9.54688C21.5625 9.81641 23.5703 11.3789 23.8047 13.8125C23.8242 13.9961 23.6797 14.1563 23.4922 14.1563H21.7383C21.582 14.1563 21.4492 14.0391 21.4297 13.8867C21.2734 12.7461 20.3594 11.8164 18.8711 11.6133V16.8594L19.8633 17.0898C22.3945 17.7148 24.1172 18.9258 24.1172 21.6367C24.1172 24.5781 21.9297 26.2188 18.8711 26.4844ZM14.6641 14.0273C14.6641 15.0195 15.2773 15.7891 16.5977 16.2656C16.7813 16.3398 16.9648 16.3984 17.1836 16.4609V11.6172C15.7422 11.8008 14.6641 12.6094 14.6641 14.0273ZM19.2148 19.3086C19.1055 19.2852 18.9961 19.2578 18.8711 19.2227V24.4453C20.5352 24.2969 21.6836 23.3828 21.6836 21.8516C21.6836 20.6523 21.0625 19.8711 19.2148 19.3086Z" fill="white"/>
</svg>
