<svg width="22" height="24" viewBox="0 0 22 24" fill="none" xmlns="http://www.w3.org/2000/svg">
<path d="M18.8571 20.5714V2.14286C18.8571 1.86145 18.8017 1.5828 18.694 1.32282C18.5863 1.06284 18.4285 0.826611 18.2295 0.627628C18.0305 0.428646 17.7943 0.270804 17.5343 0.163115C17.2743 0.0554266 16.9957 0 16.7143 0H2.14286C1.57454 0 1.02949 0.225765 0.627628 0.627628C0.225765 1.02949 0 1.57454 0 2.14286V21C0 21.7956 0.31607 22.5587 0.87868 23.1213C1.44129 23.6839 2.20435 24 3 24H21.367C21.3751 24.0001 21.3831 23.9985 21.3906 23.9955C21.3981 23.9924 21.4049 23.9878 21.4107 23.9821C21.4164 23.9764 21.421 23.9696 21.424 23.9621C21.4271 23.9545 21.4286 23.9465 21.4286 23.9384C21.4285 23.9249 21.4241 23.9118 21.4158 23.9012C21.4076 23.8905 21.3961 23.8829 21.383 23.8795C20.658 23.6806 20.0182 23.2492 19.5619 22.6517C19.1056 22.0541 18.858 21.3233 18.8571 20.5714ZM3.42857 5.14286C3.42857 4.91553 3.51888 4.69751 3.67962 4.53677C3.84037 4.37602 4.05839 4.28571 4.28571 4.28571H7.71429C7.94161 4.28571 8.15963 4.37602 8.32038 4.53677C8.48112 4.69751 8.57143 4.91553 8.57143 5.14286V8.57143C8.57143 8.79876 8.48112 9.01677 8.32038 9.17752C8.15963 9.33826 7.94161 9.42857 7.71429 9.42857H4.28571C4.05839 9.42857 3.84037 9.33826 3.67962 9.17752C3.51888 9.01677 3.42857 8.79876 3.42857 8.57143V5.14286ZM14.5714 19.7143H4.30982C3.84857 19.7143 3.45268 19.3596 3.42964 18.8984C3.42406 18.7825 3.44206 18.6667 3.48256 18.5579C3.52306 18.4492 3.58522 18.3498 3.66526 18.2658C3.7453 18.1818 3.84157 18.115 3.94822 18.0693C4.05487 18.0236 4.16969 18 4.28571 18H14.5473C15.0086 18 15.4045 18.3546 15.4275 18.8159C15.4331 18.9318 15.4151 19.0476 15.3746 19.1563C15.3341 19.2651 15.2719 19.3644 15.1919 19.4484C15.1118 19.5324 15.0156 19.5993 14.9089 19.645C14.8023 19.6907 14.6875 19.7143 14.5714 19.7143ZM14.5714 16.2857H4.30982C3.84857 16.2857 3.45268 15.9311 3.42964 15.4698C3.42406 15.3539 3.44206 15.2381 3.48256 15.1294C3.52306 15.0206 3.58522 14.9213 3.66526 14.8373C3.7453 14.7533 3.84157 14.6864 3.94822 14.6407C4.05487 14.595 4.16969 14.5714 4.28571 14.5714H14.5473C15.0086 14.5714 15.4045 14.9261 15.4275 15.3873C15.4331 15.5032 15.4151 15.619 15.3746 15.7278C15.3341 15.8365 15.2719 15.9359 15.1919 16.0199C15.1118 16.1039 15.0156 16.1707 14.9089 16.2164C14.8023 16.2621 14.6875 16.2857 14.5714 16.2857ZM14.5714 12.8571H4.30982C3.84857 12.8571 3.45268 12.5025 3.42964 12.0412C3.42406 11.9254 3.44206 11.8095 3.48256 11.7008C3.52306 11.5921 3.58522 11.4927 3.66526 11.4087C3.7453 11.3247 3.84157 11.2578 3.94822 11.2121C4.05487 11.1664 4.16969 11.1429 4.28571 11.1429H14.5473C15.0086 11.1429 15.4045 11.4975 15.4275 11.9587C15.4331 12.0746 15.4151 12.1905 15.3746 12.2992C15.3341 12.4079 15.2719 12.5073 15.1919 12.5913C15.1118 12.6753 15.0156 12.7422 14.9089 12.7879C14.8023 12.8336 14.6875 12.8571 14.5714 12.8571ZM14.5714 9.42857H11.167C10.7057 9.42857 10.3098 9.07393 10.2868 8.61268C10.2812 8.49678 10.2992 8.38096 10.3397 8.27223C10.3802 8.1635 10.4424 8.06413 10.5224 7.98013C10.6024 7.89613 10.6987 7.82926 10.8054 7.78356C10.912 7.73786 11.0268 7.7143 11.1429 7.71429H14.5473C15.0086 7.71429 15.4045 8.06893 15.4275 8.53018C15.4331 8.64607 15.4151 8.76189 15.3746 8.87062C15.3341 8.97935 15.2719 9.07873 15.1919 9.16273C15.1118 9.24673 15.0156 9.3136 14.9089 9.3593C14.8023 9.40499 14.6875 9.42856 14.5714 9.42857ZM14.5714 6H11.167C10.7057 6 10.3098 5.64536 10.2868 5.18411C10.2812 5.06821 10.2992 4.95239 10.3397 4.84366C10.3802 4.73493 10.4424 4.63556 10.5224 4.55156C10.6024 4.46756 10.6987 4.40068 10.8054 4.35499C10.912 4.30929 11.0268 4.28572 11.1429 4.28571H14.5473C15.0086 4.28571 15.4045 4.64036 15.4275 5.10161C15.4331 5.2175 15.4151 5.33332 15.3746 5.44205C15.3341 5.55078 15.2719 5.65016 15.1919 5.73416C15.1118 5.81815 15.0156 5.88503 14.9089 5.93073C14.8023 5.97642 14.6875 5.99999 14.5714 6Z" fill="#3D8AA4"/>
</svg>
